<svg width="40" height="40" viewBox="0 0 40 40" fill="none" xmlns="http://www.w3.org/2000/svg">
<rect width="40" height="40" rx="8" fill="#F5B300"/>
<path d="M12.9731 9.19588C13.7075 9.39619 14.442 9.52973 15.1765 9.73005C15.911 9.93036 16.6455 10.0639 17.3799 10.2642C17.5803 10.331 17.647 10.2642 17.7138 10.0639C17.9809 8.92879 18.248 7.86046 18.515 6.72535C18.5818 6.52504 18.6486 6.45827 18.8489 6.52504C19.5166 6.72535 20.1175 6.85889 20.7853 6.99244C20.9856 7.05921 20.9856 7.12598 20.9188 7.25952C20.6517 8.32786 20.3846 9.46296 20.1175 10.5313C20.1175 10.5981 20.1176 10.6648 20.0508 10.7984C20.5849 10.9319 21.1859 11.0655 21.7201 11.199C21.7868 11.199 21.8536 11.0655 21.9204 10.9987C22.1207 10.1307 22.321 9.32942 22.5881 8.4614C22.6548 8.19431 22.7216 7.92723 22.7884 7.66015C22.7884 7.5266 22.8552 7.45983 22.9887 7.5266C23.6564 7.72692 24.3241 7.86046 25.0586 8.06077C25.1254 8.06077 25.1254 8.12754 25.1921 8.12754C24.9918 8.99557 24.7915 9.79682 24.5912 10.5981C24.5244 10.9319 24.4577 11.2658 24.3241 11.5996C24.2574 11.7999 24.3241 11.8667 24.5244 11.9335C25.2589 12.2673 25.9934 12.6012 26.7279 12.9351C27.3956 13.3357 27.9965 13.8698 28.4639 14.5376C29.0649 15.5391 29.1316 16.6075 28.8646 17.6758C28.6642 18.4103 28.3972 19.078 27.863 19.6122C27.4624 20.0128 26.9282 20.2799 26.394 20.4802C26.3273 20.4802 26.2605 20.5469 26.1269 20.5469C26.394 20.7473 26.6611 20.8808 26.9282 21.0811C27.7294 21.6821 28.2636 22.4165 28.5307 23.3513C28.6642 24.0858 28.5975 24.8871 28.3972 25.6215C28.1301 26.5563 27.7962 27.3576 27.1953 28.0921C26.4608 28.9601 25.526 29.4275 24.4577 29.561C23.0555 29.7613 21.7201 29.6278 20.3846 29.4275C20.1843 29.3607 20.0508 29.4275 19.984 29.6278C19.7169 30.6961 19.4498 31.8312 19.1828 32.8996C19.116 33.1667 19.116 33.2334 18.7821 33.0999C18.1812 32.9664 17.5135 32.766 16.9125 32.6325C16.7122 32.5657 16.7122 32.499 16.779 32.3654C17.0461 31.2303 17.3132 30.0952 17.647 29.0269C17.647 28.8933 17.7138 28.8266 17.5803 28.7598C17.0461 28.6262 16.5119 28.4927 15.911 28.3592C15.7774 28.9601 15.5771 29.561 15.4436 30.162C15.31 30.7629 15.1097 31.3638 14.9762 31.9648C14.9094 32.0983 14.9094 32.1651 14.7091 32.0983C14.0414 31.898 13.3737 31.7645 12.706 31.6309C12.5057 31.5642 12.5057 31.4974 12.5724 31.3638C12.8395 30.2287 13.1066 29.0936 13.4405 28.0253C13.4405 27.9585 13.5072 27.8918 13.5072 27.7582C11.9715 27.3576 10.4358 26.957 8.83325 26.5563C8.96679 26.2893 9.03356 26.0889 9.16711 25.8219C9.43419 25.2209 9.70128 24.62 9.90159 24.0858C9.96836 23.8855 10.0351 23.8855 10.2354 23.8855C10.7028 24.019 11.237 24.1526 11.7044 24.2194C12.2386 24.3529 12.6392 24.0858 12.706 23.6184C13.574 20.2131 14.442 16.8078 15.2433 13.3357C15.3768 12.8015 15.043 12.2006 14.442 12.0003C13.8411 11.7999 13.2401 11.6664 12.706 11.5329C12.5724 11.5329 12.5057 11.4661 12.5724 11.3326C12.7727 10.5981 12.9731 9.79682 13.1734 9.06234C12.9063 9.26265 12.9063 9.26265 12.9731 9.19588ZM16.3784 25.6883C16.4451 25.6883 16.5119 25.7551 16.5119 25.7551C17.5803 26.0222 18.7154 26.356 19.8505 26.4228C20.6517 26.4896 21.3862 26.4896 22.1207 26.2225C23.3893 25.8219 23.9235 24.1526 23.189 23.0842C22.8552 22.5501 22.321 22.2162 21.7868 21.8824C20.5849 21.2147 19.1828 20.9476 17.8473 20.6805C17.647 20.6137 17.647 20.6805 17.5803 20.8808C17.4467 21.5485 17.2464 22.1495 17.1129 22.8172C16.8458 23.752 16.6455 24.6867 16.3784 25.6883ZM21.9871 18.8777C22.1207 18.8777 22.4545 18.8109 22.7216 18.7441C23.9903 18.477 24.658 17.0081 23.9903 15.873C23.6564 15.272 23.0555 14.8714 22.4545 14.6043C21.5197 14.2037 20.5849 14.0034 19.5834 13.7363C19.3831 13.6695 19.3163 13.7363 19.2495 13.9366C18.9157 15.3388 18.5818 16.6742 18.1812 18.0764C18.1144 18.21 18.1812 18.2767 18.3147 18.3435C18.5818 18.4103 18.7821 18.477 19.0492 18.5438C20.0508 18.6774 20.9188 18.8777 21.9871 18.8777Z" fill="white"/>
</svg>
