<svg width="40" height="40" viewBox="0 0 40 40" fill="none" xmlns="http://www.w3.org/2000/svg">
<rect width="40" height="40" rx="8" fill="#E9E9E9"/>
<g clip-path="url(#clip0_433_1335)">
<path d="M19.9974 5L19.802 5.64548V24.3759L19.9974 24.5655L28.9421 19.4262L19.9974 5Z" fill="#343434"/>
<path d="M19.9974 5L11.0527 19.4262L19.9974 24.5656V15.4744V5Z" fill="#8C8C8C"/>
<path d="M19.9973 26.2116L19.8872 26.3421V33.0143L19.9973 33.3268L28.9474 21.075L19.9973 26.2116Z" fill="#3C3C3B"/>
<path d="M19.9974 33.3269V26.2116L11.0527 21.075L19.9974 33.3269Z" fill="#8C8C8C"/>
<path d="M19.9973 24.5654L28.9419 19.4262L19.9973 15.4744V24.5654Z" fill="#141414"/>
<path d="M11.0527 19.4262L19.9973 24.5655V15.4744L11.0527 19.4262Z" fill="#393939"/>
</g>
<defs>
<clipPath id="clip0_433_1335">
<rect width="17.8947" height="28.3333" fill="white" transform="translate(11.0527 5)"/>
</clipPath>
</defs>
</svg>
