<svg width="352" height="352" viewBox="0 0 352 352" fill="none" xmlns="http://www.w3.org/2000/svg">
<g filter="url(#filter0_d_472_2415)">
<circle cx="176" cy="176" r="148" fill="white"/>
</g>
<path d="M81.4239 164.567C82.9253 152.147 86.8583 140.145 92.9983 129.245C99.1382 118.345 107.365 108.761 117.209 101.04C127.053 93.3198 138.321 87.6138 150.37 84.248C162.419 80.8822 175.013 79.9226 187.433 81.424C199.852 82.9253 211.855 86.8583 222.755 92.9983C233.655 99.1382 243.239 107.365 250.959 117.209C258.68 127.053 264.386 138.321 267.752 150.37C271.117 162.419 272.077 175.013 270.576 187.433C269.074 199.852 265.141 211.855 259.001 222.755C252.861 233.655 244.635 243.239 234.791 250.959C224.947 258.68 213.679 264.386 201.63 267.752C189.581 271.117 176.987 272.077 164.567 270.576C152.147 269.074 140.145 265.141 129.245 259.001C118.345 252.861 108.761 244.635 101.04 234.791C93.3198 224.947 87.6137 213.679 84.248 201.63C80.8822 189.581 79.9226 176.987 81.4239 164.567L81.4239 164.567Z" stroke="#5BB65B" stroke-width="13.6092" stroke-linecap="round"/>
<path d="M176 50.9653C192.42 50.9653 208.679 54.1994 223.848 60.483C239.018 66.7666 252.802 75.9766 264.413 87.5871C276.023 99.1976 285.233 112.981 291.517 128.151C297.8 143.321 301.034 159.58 301.034 176C301.034 192.42 297.8 208.679 291.517 223.848C285.233 239.018 276.023 252.802 264.413 264.413C252.802 276.023 239.018 285.233 223.848 291.517C208.679 297.8 192.42 301.034 176 301.034C159.58 301.034 143.321 297.8 128.151 291.517C112.981 285.233 99.1976 276.023 87.587 264.412C75.9765 252.802 66.7665 239.018 60.483 223.848C54.1994 208.678 50.9653 192.42 50.9653 176C50.9653 159.58 54.1995 143.321 60.483 128.151C66.7666 112.981 75.9766 99.1975 87.5871 87.587C99.1977 75.9765 112.981 66.7665 128.151 60.483C143.321 54.1994 159.58 50.9653 176 50.9653L176 50.9653Z" stroke="#5BB65B" stroke-width="1.70115" stroke-dasharray="10.21 10.21"/>
<ellipse cx="177.672" cy="158.989" rx="27.2184" ry="27.2184" transform="rotate(-180 177.672 158.989)" fill="#5BB65B"/>
<path d="M163.212 159.545L173.124 169.457L192.982 149.632" stroke="white" stroke-width="3.4023" stroke-linecap="round" stroke-linejoin="round"/>
<defs>
<filter id="filter0_d_472_2415" x="0.781609" y="0.781609" width="350.437" height="350.437" filterUnits="userSpaceOnUse" color-interpolation-filters="sRGB">
<feFlood flood-opacity="0" result="BackgroundImageFix"/>
<feColorMatrix in="SourceAlpha" type="matrix" values="0 0 0 0 0 0 0 0 0 0 0 0 0 0 0 0 0 0 127 0" result="hardAlpha"/>
<feOffset/>
<feGaussianBlur stdDeviation="13.6092"/>
<feComposite in2="hardAlpha" operator="out"/>
<feColorMatrix type="matrix" values="0 0 0 0 0.00901168 0 0 0 0 0.0708036 0 0 0 0 0.342689 0 0 0 0.16 0"/>
<feBlend mode="normal" in2="BackgroundImageFix" result="effect1_dropShadow_472_2415"/>
<feBlend mode="normal" in="SourceGraphic" in2="effect1_dropShadow_472_2415" result="shape"/>
</filter>
</defs>
</svg>
