<svg width="40" height="40" viewBox="0 0 40 40" fill="none" xmlns="http://www.w3.org/2000/svg">
<rect width="40" height="40" rx="8" fill="#C0C0C0"/>
<path d="M18.7476 25.514C22.5214 25.5852 26.2261 25.6545 29.9999 25.7949C29.8616 26.3548 29.7213 26.8435 29.6522 27.3341C29.4407 28.0345 29.2313 28.6656 29.0931 29.3659C29.0219 29.7161 28.8816 29.7854 28.5339 29.7854H10.5004C11.1308 27.3341 11.7591 25.0254 12.3874 22.5741C11.4093 22.9243 10.5696 23.2745 9.59155 23.6939C9.87215 22.6453 10.1507 21.7353 10.5004 20.754C10.5004 20.6155 10.7099 20.5443 10.8502 20.5443C11.4805 20.2653 12.1779 20.0537 12.8062 19.7727C13.0157 19.7055 13.2271 19.4957 13.2271 19.2841L16.1592 8.36531C16.2303 7.94589 16.3686 7.80542 16.8586 7.80542H23.2188C22.4502 10.6741 21.7508 13.5467 20.9822 16.5559C22.1005 16.0672 23.1497 15.6458 24.3371 15.2264C24.1968 15.7863 23.9874 16.2749 23.9183 16.7656C23.778 17.8873 23.1497 18.5164 22.0314 18.7974C21.5434 18.9359 21.0513 19.1456 20.5633 19.3573C20.39 19.461 20.246 19.6051 20.1444 19.7767C19.6544 21.666 19.1644 23.4862 18.7455 25.3755V25.516L18.7476 25.514Z" fill="white"/>
</svg>
