<svg width="40" height="40" viewBox="0 0 40 40" fill="none" xmlns="http://www.w3.org/2000/svg">
<rect width="40" height="40" rx="8" fill="#50AF95"/>
<path d="M20.0981 8.45835C23.192 8.45835 26.1621 8.45835 29.256 8.45835C29.5035 8.45835 29.6273 8.58369 29.6273 8.70904C31.3598 12.5947 33.0924 16.3549 34.9487 20.1152C35.0725 20.2406 34.9487 20.3659 34.825 20.4913C32.7211 22.6221 30.6173 24.7529 28.3897 26.8837C25.6671 29.5159 22.8207 32.2735 20.0981 34.9057C19.8506 35.031 19.8506 35.031 19.7269 34.9057C17.0042 32.2735 14.2816 29.6413 11.559 26.8837C9.45518 24.7529 7.22759 22.6221 5.12376 20.4913C5 20.3659 5 20.2406 5 20.1152C5.86629 18.1097 6.85633 16.2296 7.72261 14.2241C8.5889 12.344 9.45518 10.5892 10.3215 8.70904C10.4452 8.45835 10.569 8.33301 10.9402 8.33301C14.0341 8.45835 17.0042 8.33301 20.0981 8.45835ZM20.2219 11.8426C17.9943 11.8426 15.6429 11.8426 13.4153 11.8426C13.2916 11.8426 13.2916 11.8426 13.1678 11.8426C13.0441 11.8426 13.0441 11.8426 13.0441 11.9679C13.0441 13.096 13.0441 14.2241 12.9203 15.4775C12.9203 15.6029 12.9203 15.6029 13.0441 15.6029C13.4153 15.6029 13.7866 15.6029 14.1579 15.6029C15.3954 15.6029 16.633 15.6029 17.8705 15.6029C17.9943 15.6029 17.9943 15.6029 18.118 15.6029C18.2418 15.6029 18.2418 15.7282 18.2418 15.8536C18.2418 16.3549 18.2418 16.9817 18.2418 17.483C18.2418 17.6084 18.2418 17.6084 18.118 17.7337C17.2518 17.8591 16.3855 17.8591 15.5192 17.9844C14.4054 18.1097 13.2916 18.3604 12.3016 18.7365C11.8065 18.8618 11.4353 19.1125 11.064 19.3632C10.6927 19.7392 10.6927 20.2406 11.064 20.4913C11.3115 20.7419 11.559 20.8673 11.8065 20.9926C12.6728 21.3687 13.5391 21.494 14.4054 21.7447C15.6429 21.9954 16.8805 22.1207 18.118 22.2461C18.3656 22.2461 18.3656 22.2461 18.3656 22.4967C18.3656 24.7529 18.3656 27.1344 18.3656 29.3906C18.3656 29.6413 18.3656 29.6413 18.6131 29.6413C19.7269 29.6413 20.9644 29.6413 22.0782 29.6413C22.4495 29.6413 22.4495 29.6413 22.4495 29.2652C22.4495 27.3851 22.4495 25.6303 22.4495 23.7502C22.4495 23.2488 22.4495 22.7474 22.4495 22.2461C22.4495 21.9954 22.5732 21.9954 22.697 21.9954C23.9345 21.9954 25.0483 21.87 26.2859 21.6193C27.2759 21.494 28.1422 21.2433 29.0085 20.8673C29.256 20.7419 29.5035 20.4913 29.751 20.3659C29.9985 20.1152 29.9985 19.8645 29.751 19.6139C29.5035 19.4885 29.3798 19.2378 29.1322 19.1125C27.6472 18.2351 25.9146 17.8591 24.182 17.7337C23.687 17.7337 23.192 17.7337 22.697 17.6084C22.5732 17.6084 22.5732 17.6084 22.5732 17.3577C22.5732 16.8563 22.5732 16.2296 22.5732 15.7282C22.5732 15.6029 22.5732 15.4775 22.8207 15.4775C23.192 15.4775 23.5633 15.4775 23.9345 15.4775C25.1721 15.4775 26.2859 15.4775 27.5234 15.4775C27.7709 15.4775 27.7709 15.3522 27.7709 15.2269C27.7709 15.1015 27.7709 15.1015 27.7709 14.9762C27.7709 13.9734 27.7709 12.9707 27.7709 11.8426C27.7709 11.5919 27.7709 11.5919 27.5234 11.5919C24.8008 11.8426 22.4495 11.8426 20.2219 11.8426Z" fill="white"/>
<path d="M19.6027 21.3686C18.7364 21.3686 17.9938 21.3686 17.1276 21.2432C15.7663 21.1179 14.2812 20.9926 12.9199 20.4912C12.6724 20.3658 12.4249 20.2405 12.0536 20.1152C11.6823 19.8645 11.6823 19.6138 12.0536 19.4884C12.5486 19.2378 13.0436 19.1124 13.5387 18.9871C14.5287 18.7364 15.5187 18.611 16.6325 18.4857C17.0038 18.4857 17.4988 18.3604 17.8701 18.3604C17.9938 18.3604 18.1176 18.3604 18.1176 18.611C18.1176 19.3631 18.1176 19.9898 18.1176 20.7419C18.1176 20.9926 18.2414 20.9926 18.3651 20.9926C19.3552 20.9926 20.3452 20.9926 21.2115 20.9926C21.459 20.9926 21.7065 20.9926 21.954 20.9926C22.2015 20.9926 22.2015 20.9926 22.2015 20.7419C22.2015 20.1152 22.2015 19.4884 22.2015 18.8617C22.2015 18.4857 22.2015 18.4857 22.5728 18.4857C24.1816 18.611 25.7904 18.7364 27.3992 19.2378C27.6468 19.3631 28.018 19.4884 28.2655 19.6138C28.513 19.7391 28.513 19.9898 28.2655 20.1152C27.7705 20.4912 27.2755 20.6165 26.6567 20.7419C25.4192 20.9926 24.1816 21.2432 22.9441 21.2432C21.954 21.2432 20.7165 21.3686 19.6027 21.3686Z" fill="white"/>
</svg>
