<svg width="35" height="27" viewBox="0 0 35 27" fill="none" xmlns="http://www.w3.org/2000/svg">
    <path d="M22.5017 14.1903L29.9803 0L22.5017 14.1903ZM24.5919 10.2208L29.9803 0H34.1032L26.8163 14.1903H22.3099L14.9271 0H19.3376L24.5919 10.2208Z" fill="#1C77FF"/>
    <path d="M15.7992 7.11432C15.7992 8.45665 15.454 9.66474 14.7637 10.7386C14.0861 11.8125 13.1145 12.6562 11.8489 13.2698C10.5833 13.8835 9.11951 14.1903 7.45758 14.1903V14.2095H3.37308V14.1903H0.132324V0H7.4384C9.11311 0 10.5833 0.306817 11.8489 0.920451C13.1145 1.53408 14.0861 2.37783 14.7637 3.45169C15.454 4.52555 15.7992 5.74643 15.7992 7.11432ZM7.63017 10.8728C8.85743 10.8728 9.86737 10.5532 10.66 9.91403C11.4654 9.27482 11.8681 8.34159 11.8681 7.11432C11.8681 6.42398 11.6763 5.79117 11.2928 5.21589C10.9093 4.62782 10.3915 4.1676 9.73953 3.83521C9.10033 3.49004 8.39721 3.31746 7.63017 3.31746H4.10177V10.8728H7.63017Z" fill="#1C77FF"/>
    <path d="M28.6732 19.4485H29.8873V21.0828H28.6732V25.8107H26.3968V21.0828H25.1244V19.4485H26.3968V18.071L28.6732 16.9854V19.4485Z" fill="#1C77FF"/>
    <path d="M24.8003 22.8339H18.4498C18.4965 23.3786 18.6989 23.83 19.0569 24.188C19.4226 24.5382 19.9246 24.7133 20.5628 24.7133C20.9052 24.7133 21.2243 24.655 21.52 24.5382C21.8235 24.4215 22.0648 24.2542 22.2438 24.0363C22.4305 23.8183 22.5239 23.5693 22.5239 23.2891H24.8003C24.8003 23.8261 24.6291 24.3047 24.2867 24.725C23.952 25.1375 23.4656 25.4604 22.8275 25.6939C22.1893 25.9274 21.4305 26.0441 20.5511 26.0441C19.7417 26.0441 18.9985 25.9001 18.3214 25.6122C17.6443 25.3242 17.1112 24.9196 16.7221 24.3981C16.333 23.8689 16.1384 23.2658 16.1384 22.5887C16.1384 21.9039 16.333 21.3007 16.7221 20.7793C17.1112 20.2501 17.6404 19.8454 18.3097 19.5652C18.979 19.2773 19.7261 19.1333 20.5511 19.1333C21.3916 19.1333 22.1309 19.2734 22.7691 19.5536C23.4072 19.8337 23.9014 20.2306 24.2516 20.7443C24.6096 21.2501 24.7925 21.8455 24.8003 22.5303V22.5887H24.812H24.8003V22.8339ZM20.5628 20.4291C19.5043 20.4291 18.8389 20.8844 18.5666 21.7949H22.4422C22.2321 20.8844 21.6056 20.4291 20.5628 20.4291Z" fill="#1C77FF"/>
    <path d="M12.6922 19.2383C13.6106 19.2383 14.3266 19.5418 14.8402 20.1488C15.3538 20.7559 15.6107 21.7676 15.6107 23.184V25.8106H13.3343V23.219C13.3343 22.7209 13.2993 22.3007 13.2292 21.9583C13.167 21.6158 13.0152 21.3279 12.774 21.0944C12.5327 20.8609 12.1669 20.7442 11.6766 20.7442C11.163 20.7442 10.7778 20.8609 10.5209 21.0944C10.2719 21.3201 10.1124 21.608 10.0423 21.9583C9.97228 22.3007 9.93726 22.7287 9.93726 23.2424V25.8106H7.66089V19.4484H9.93726V20.2656C10.5443 19.5807 11.4626 19.2383 12.6922 19.2383Z" fill="#1C77FF"/>
    <path d="M4.66187 23.8267H6.92656V25.8112H4.66187V23.8267Z" fill="#1C77FF"/>
</svg>
